<?xml version="1.0" standalone="no"?>
<!DOCTYPE svg PUBLIC "-//W3C//DTD SVG 20010904//EN"
 "http://www.w3.org/TR/2001/REC-SVG-20010904/DTD/svg10.dtd">
<svg version="1.0" xmlns="http://www.w3.org/2000/svg"
 width="512.000000pt" height="512.000000pt" viewBox="0 0 512.000000 512.000000"
 preserveAspectRatio="xMidYMid meet">

<g transform="translate(0.000000,512.000000) scale(0.100000,-0.100000)"
fill="#000000" stroke="none">
<path d="M1957 5098 c-15 -14 -31 -48 -41 -88 -24 -95 -21 -92 -102 -80 -100
14 -258 12 -339 -5 -102 -21 -204 -75 -259 -136 -56 -62 -84 -112 -130 -231
-51 -133 -66 -153 -123 -173 -26 -9 -61 -22 -77 -28 -38 -14 -66 -62 -66 -114
0 -48 25 -83 101 -143 l48 -37 -35 -52 c-139 -206 -243 -492 -275 -754 -18
-147 -6 -424 23 -563 l23 -112 -56 -60 c-102 -108 -180 -269 -184 -378 -2 -59
-5 -64 -63 -135 -82 -98 -97 -130 -80 -166 7 -15 23 -33 36 -39 41 -20 70 -5
125 67 29 38 55 68 59 69 4 0 35 -17 70 -37 82 -48 197 -96 279 -117 72 -18
196 -21 248 -6 32 9 36 7 102 -52 38 -34 104 -87 148 -119 l80 -56 -27 -26
c-15 -15 -52 -68 -82 -119 -95 -159 -170 -225 -500 -437 -157 -101 -293 -192
-302 -203 -39 -45 -4 -118 56 -118 19 0 120 59 319 188 258 166 303 198 392
287 74 73 115 123 151 185 54 94 104 149 162 179 21 11 117 43 213 72 254 75
248 76 589 -38 398 -134 344 -125 790 -132 331 -5 389 -8 415 -22 118 -65 126
-232 14 -306 l-42 -28 -456 -6 c-380 -4 -470 -8 -541 -23 -96 -20 -130 -43
-130 -88 0 -30 38 -78 62 -78 7 0 47 7 88 16 60 13 168 18 540 23 450 6 467 7
512 28 100 46 178 147 196 255 l7 40 289 129 c160 71 305 134 323 140 106 35
192 -98 116 -181 -40 -42 -1221 -686 -1287 -701 -43 -9 -165 -4 -730 35 -521
35 -683 43 -700 34 -29 -15 -643 -484 -683 -522 -43 -39 -45 -85 -7 -115 15
-12 37 -21 49 -21 14 0 148 96 356 255 312 238 337 255 375 255 23 0 306 -18
630 -40 324 -22 618 -40 654 -40 99 1 165 29 495 210 165 90 437 239 605 331
167 92 319 179 336 193 18 14 45 51 60 82 73 149 -5 324 -164 370 -69 20 -120
14 -213 -26 -39 -16 -73 -30 -75 -30 -2 0 -4 21 -5 48 -1 98 -57 185 -145 228
-48 24 -70 28 -129 27 l-71 -1 -18 44 c-10 24 -38 62 -62 83 l-44 39 52 83
c72 117 142 266 180 386 l33 101 70 -5 c68 -6 72 -8 150 -70 44 -36 90 -69
103 -74 52 -20 107 22 100 77 -2 21 -22 43 -75 87 l-73 58 24 37 c74 118 140
293 151 402 9 82 -7 166 -44 247 -23 47 -58 92 -145 181 -64 67 -118 131 -122
146 -3 15 -4 53 0 84 8 70 -13 116 -65 144 -43 24 -80 19 -158 -21 l-59 -30
-45 77 c-87 150 -196 282 -233 282 -46 0 -91 -52 -79 -91 4 -11 37 -60 75
-110 37 -50 88 -127 113 -172 l46 -81 -35 -38 c-103 -115 -174 -287 -190 -465
-6 -68 -5 -73 19 -97 62 -62 137 -11 137 93 0 101 63 262 139 358 37 46 149
133 172 133 5 0 9 -21 9 -47 0 -80 36 -139 154 -255 130 -128 160 -185 160
-293 -1 -83 -27 -172 -86 -289 l-41 -81 -29 35 c-45 53 -126 225 -148 314 -11
44 -24 122 -29 173 -10 110 -24 133 -81 133 -58 0 -76 -27 -73 -114 6 -152 48
-308 124 -456 24 -47 45 -88 47 -93 6 -13 -47 11 -105 49 -30 19 -79 60 -107
90 -40 42 -59 54 -82 54 -62 0 -98 -55 -70 -108 19 -37 108 -120 179 -167 31
-21 57 -41 57 -46 0 -57 -175 -454 -205 -466 -8 -2 -117 29 -243 71 -126 42
-242 76 -258 76 -15 0 -48 -10 -72 -22 -37 -18 -56 -38 -113 -126 l-68 -104
-146 -69 c-81 -38 -151 -69 -157 -69 -11 0 -365 247 -373 260 -10 16 49 142
70 151 11 5 103 29 205 54 252 63 252 63 337 227 131 255 131 248 22 425 -94
156 -113 180 -159 203 -57 29 -206 28 -266 -1 -44 -21 -53 -33 -219 -291 -28
-43 -57 -78 -65 -78 -8 0 -51 11 -95 25 -145 45 -184 35 -292 -74 -60 -61 -50
-63 -192 36 l-83 58 -60 147 -60 146 93 156 c52 87 99 156 107 156 8 0 87 -23
175 -51 126 -40 171 -50 207 -47 33 4 114 41 299 137 140 72 261 137 268 143
8 6 24 30 35 52 19 38 20 51 14 181 -8 179 -22 211 -116 272 -35 24 -70 49
-77 55 -9 10 5 48 72 186 l84 174 33 -7 c261 -51 436 -122 644 -261 118 -79
150 -88 184 -54 34 34 27 82 -17 121 -153 133 -453 273 -704 328 -221 47 -536
50 -714 5 -16 -4 -26 1 -37 18 -14 22 -13 30 15 113 38 115 41 170 8 196 -31
25 -64 24 -94 -3z m-140 -321 c11 -11 -78 -135 -143 -202 -78 -78 -164 -141
-261 -189 -40 -20 -77 -45 -83 -56 -27 -51 5 -113 57 -113 97 0 372 199 481
347 33 45 37 48 40 28 6 -42 -29 -184 -59 -245 -80 -157 -252 -247 -475 -248
-110 0 -197 20 -279 66 -66 37 -109 75 -84 75 28 0 108 59 138 101 17 22 49
89 71 148 72 187 133 250 275 288 50 13 309 13 322 0z m651 -132 c1 -1 -32
-72 -73 -156 -71 -143 -76 -158 -73 -206 6 -67 38 -109 127 -166 l68 -45 7
-112 c3 -63 3 -117 -1 -121 -4 -4 -115 -62 -245 -129 l-237 -121 -173 56
c-259 86 -271 81 -412 -153 -51 -86 -101 -171 -110 -189 -30 -59 -21 -108 50
-279 36 -87 72 -169 80 -182 23 -35 265 -192 307 -199 69 -11 103 4 182 78
l73 70 109 -32 c177 -52 204 -36 362 210 l103 161 63 0 c73 0 65 8 156 -142
l68 -111 -69 -137 -69 -137 -211 -53 c-263 -66 -270 -70 -330 -205 -36 -84
-42 -105 -38 -150 3 -32 13 -64 26 -83 21 -29 359 -274 425 -309 61 -31 109
-21 287 62 91 42 178 88 193 103 16 15 54 66 84 115 32 50 62 87 72 87 29 0
391 -124 391 -134 0 -6 -55 -65 -122 -131 -134 -131 -261 -223 -413 -297 -134
-66 -129 -65 -223 -55 -69 6 -149 29 -392 109 -403 134 -393 133 -689 49
l-213 -62 -44 26 c-55 32 -168 117 -212 158 l-32 31 92 94 c51 51 105 100 120
108 19 10 53 14 105 12 88 -2 112 8 145 60 30 48 20 104 -33 199 -80 140 -271
303 -357 303 -42 0 -72 -30 -72 -73 0 -38 19 -59 95 -102 64 -37 136 -105 175
-164 16 -26 30 -50 30 -53 0 -3 -25 -8 -55 -11 -79 -8 -139 -46 -249 -156 -53
-54 -120 -111 -148 -126 -113 -62 -283 -36 -467 72 l-43 25 48 35 c120 85 277
144 439 163 55 6 110 13 122 16 29 6 55 56 47 89 -14 57 -74 67 -243 40 -122
-20 -223 -54 -338 -115 l-93 -48 15 34 c39 93 120 187 206 237 50 30 146 57
199 57 72 0 109 81 60 130 -31 31 -127 25 -256 -15 -18 -6 -22 0 -32 47 -39
181 -40 460 -2 643 47 223 150 459 270 617 3 4 35 -2 70 -13 245 -77 585 10
740 189 85 98 150 274 150 407 l0 53 66 12 c118 23 325 32 342 15z m1348
-2796 c33 -64 24 -79 -113 -198 l-128 -111 -120 1 c-116 0 -119 1 -95 17 104
72 200 150 290 238 96 94 106 101 128 91 13 -6 30 -23 38 -38z m320 -170 c26
-25 40 -76 29 -110 -17 -51 -98 -121 -193 -166 -95 -44 -122 -51 -122 -32 0 5
-23 34 -50 64 l-51 53 122 106 c68 59 137 110 153 115 39 10 82 -2 112 -30z"/>
</g>
</svg>
