<?xml version="1.0" standalone="no"?>
<!DOCTYPE svg PUBLIC "-//W3C//DTD SVG 20010904//EN"
 "http://www.w3.org/TR/2001/REC-SVG-20010904/DTD/svg10.dtd">
<svg version="1.0" xmlns="http://www.w3.org/2000/svg"
 width="512.000000pt" height="512.000000pt" viewBox="0 0 512.000000 512.000000"
 preserveAspectRatio="xMidYMid meet">

<g transform="translate(0.000000,512.000000) scale(0.100000,-0.100000)"
fill="#000000" stroke="none">
<path d="M361 4799 c-172 -34 -318 -182 -351 -358 -14 -73 -14 -1889 0 -1962
34 -180 179 -325 359 -359 30 -5 94 -10 142 -10 l89 0 0 -240 c0 -222 2 -244
20 -280 34 -66 120 -97 187 -68 15 7 211 136 435 286 224 150 423 279 442 287
30 13 148 15 774 15 461 0 760 4 793 10 180 34 325 179 359 359 14 73 14 1889
0 1962 -34 180 -179 325 -359 359 -67 12 -2825 12 -2890 -1z m2579 -907 c99
-49 99 -215 0 -264 -33 -17 -107 -18 -1130 -18 -1023 0 -1097 1 -1130 18 -99
49 -99 215 0 264 33 17 107 18 1130 18 1023 0 1097 -1 1130 -18z m-900 -600
c99 -49 99 -215 0 -264 -32 -17 -86 -18 -680 -18 -720 0 -693 -3 -734 69 -42
73 -16 178 54 213 32 17 86 18 680 18 594 0 648 -1 680 -18z"/>
<path d="M3917 3018 c-3 -635 -2 -611 -56 -747 -68 -168 -228 -330 -395 -399
-143 -58 -98 -55 -926 -61 l-765 -6 -137 -93 -138 -92 0 -144 c0 -79 5 -167
10 -197 34 -180 179 -325 359 -359 34 -6 336 -10 806 -10 l752 0 429 -288
c236 -159 444 -294 463 -300 48 -17 76 -15 121 8 26 13 47 34 60 60 18 36 20
58 20 280 l0 240 89 0 c48 0 112 5 142 10 180 34 325 179 359 359 14 73 14
1889 0 1962 -34 180 -179 325 -359 359 -31 6 -220 10 -442 10 l-388 0 -4 -592z"/>
</g>
</svg>
