<?xml version="1.0" standalone="no"?>
<!DOCTYPE svg PUBLIC "-//W3C//DTD SVG 20010904//EN"
 "http://www.w3.org/TR/2001/REC-SVG-20010904/DTD/svg10.dtd">
<svg version="1.0" xmlns="http://www.w3.org/2000/svg"
 width="512.000000pt" height="512.000000pt" viewBox="0 0 512.000000 512.000000"
 preserveAspectRatio="xMidYMid meet">

<g transform="translate(0.000000,512.000000) scale(0.100000,-0.100000)"
fill="#000000" stroke="none">
<path d="M598 5091 l-33 -29 -3 -580 -2 -580 -97 -4 c-138 -6 -125 16 -258
-438 -127 -436 -132 -468 -78 -581 62 -132 212 -228 356 -229 l37 0 0 -1294 0
-1295 24 -28 24 -28 1992 0 1992 0 24 28 24 28 0 745 c0 492 -3 752 -10 765
-29 53 -116 61 -161 13 l-24 -26 -3 -679 -2 -679 -1065 0 -1064 0 -3 487 c-4
485 -4 488 -27 552 -68 184 -235 337 -421 386 -277 74 -570 -61 -699 -322 -58
-117 -61 -143 -61 -645 l0 -458 -170 0 -170 0 0 1225 0 1225 1839 0 1840 0 3
-171 3 -171 34 -30 c29 -26 39 -30 75 -25 27 4 49 15 63 32 22 25 23 34 23
196 l0 169 38 0 c143 1 299 102 358 234 49 110 44 144 -81 576 -133 454 -120
432 -258 438 l-97 4 -2 580 -3 580 -33 29 -32 29 -1930 0 -1930 0 -32 -29z
m3752 -686 l0 -505 -1790 0 -1790 0 0 505 0 505 1790 0 1790 0 0 -505z m-2503
-727 c-2 -7 -62 -197 -132 -421 l-129 -408 -575 3 -576 3 -45 25 c-57 32 -90
81 -90 134 0 23 41 184 92 359 l91 317 685 0 c543 0 683 -3 679 -12z m1394
-398 c71 -223 129 -411 129 -417 0 -10 -164 -13 -786 -13 -681 0 -785 2 -781
14 3 8 63 197 134 421 l127 405 524 -2 525 -3 128 -405z m1487 93 c51 -175 92
-336 92 -359 0 -53 -33 -102 -90 -134 l-45 -25 -548 0 -549 0 -124 390 c-68
215 -126 402 -129 418 l-7 27 655 0 654 0 91 -317z m-2948 -1949 c102 -30 195
-106 240 -194 47 -92 50 -127 50 -592 l0 -438 -405 0 -406 0 3 463 c3 459 3
462 27 520 45 113 146 206 261 242 61 19 165 18 230 -1z"/>
<path d="M3815 4705 l-25 -24 0 -264 0 -264 26 -24 c23 -22 36 -24 128 -27
155 -5 212 28 185 108 -15 41 -35 50 -113 50 l-66 0 0 40 0 40 60 0 c51 0 65
4 85 25 26 25 32 63 15 95 -12 23 -61 40 -116 40 -44 0 -44 0 -44 35 l0 35 64
0 c80 0 119 26 119 80 0 24 -7 40 -27 57 -25 21 -36 23 -147 23 -114 0 -121
-1 -144 -25z"/>
<path d="M1119 4701 c-78 -43 -120 -120 -105 -193 13 -64 45 -99 125 -135 131
-58 146 -67 146 -88 0 -47 -98 -44 -160 5 -45 36 -75 38 -111 7 -37 -33 -37
-78 2 -118 81 -84 233 -111 327 -56 94 55 129 154 87 242 -28 58 -64 85 -165
125 -92 36 -104 45 -87 62 18 18 78 13 118 -11 19 -12 48 -21 63 -21 60 0 94
87 51 130 -63 63 -218 90 -291 51z"/>
<path d="M1625 4713 c-51 -13 -75 -65 -51 -112 20 -37 32 -41 127 -41 l79 0 0
-204 c0 -198 1 -206 23 -231 31 -37 82 -37 114 -1 22 26 23 32 23 232 l0 204
85 0 c78 0 88 2 110 25 32 31 32 66 1 102 l-24 28 -234 2 c-128 0 -242 -1
-253 -4z"/>
<path d="M2554 4700 c-252 -100 -273 -449 -34 -568 108 -54 220 -50 320 13
117 74 170 232 124 368 -21 61 -94 141 -158 174 -70 36 -180 42 -252 13z m184
-154 c114 -59 115 -218 2 -276 -50 -25 -93 -25 -144 0 -57 28 -79 63 -84 130
-4 65 18 108 70 140 39 24 116 27 156 6z"/>
<path d="M3200 4700 c-19 -19 -20 -33 -20 -294 l0 -275 26 -20 c34 -26 64 -27
97 -1 22 18 27 30 29 82 l3 61 60 -71 c84 -98 124 -114 170 -67 47 46 37 71
-77 201 -19 21 -19 22 16 43 52 32 90 116 84 182 -7 64 -48 124 -107 156 -38
20 -58 23 -153 23 -95 0 -110 -2 -128 -20z m208 -146 c44 -31 21 -74 -40 -74
-37 0 -38 1 -38 38 0 21 3 42 7 45 11 12 48 7 71 -9z"/>
<path d="M1124 2440 c-12 -4 -31 -21 -43 -36 -20 -26 -21 -37 -21 -260 l0
-234 29 -32 29 -33 547 0 547 0 29 33 29 32 0 235 0 235 -29 32 -29 33 -534 2
c-293 1 -543 -2 -554 -7z m946 -295 l0 -95 -405 0 -405 0 0 95 0 95 405 0 405
0 0 -95z"/>
<path d="M2785 2436 c-150 -36 -272 -162 -304 -314 -15 -72 -15 -951 0 -1024
34 -160 165 -287 329 -318 70 -13 940 -13 1011 0 160 30 293 156 329 312 5 25
10 241 10 518 0 514 -3 545 -55 633 -56 96 -163 173 -273 196 -76 16 -980 13
-1047 -3z m1070 -219 c45 -26 80 -73 95 -128 7 -25 10 -205 8 -501 l-3 -463
-28 -47 c-17 -29 -44 -57 -71 -73 l-43 -25 -495 0 -495 0 -44 23 c-29 16 -54
40 -74 72 l-30 48 0 486 0 486 28 47 c16 28 44 57 70 72 l42 26 500 0 c500 0
500 0 540 -23z"/>
<path d="M4429 2021 c-77 -77 6 -199 106 -157 68 29 81 130 22 171 -37 26 -94
19 -128 -14z"/>
</g>
</svg>
